<?xml version="1.0" encoding="UTF-8" standalone="no"?>
<!DOCTYPE svg PUBLIC "-//W3C//DTD SVG 20010904//EN"
              "http://www.w3.org/TR/2001/REC-SVG-20010904/DTD/svg10.dtd">

<svg xmlns="http://www.w3.org/2000/svg"
     width="6.59722in" height="2.22222in"
     viewBox="0 0 475 160">
  <path id="Selección"
        fill="none" stroke="black" stroke-width="1"
        d="M 253.76,5.62
           C 253.98,6.67 255.06,32.00 255.06,32.00
             255.06,32.00 255.91,106.00 255.91,106.00
             255.91,106.00 255.00,139.06 255.00,139.06
             255.00,139.06 306.75,138.38 315.31,139.75
             314.46,133.72 315.00,125.12 315.00,119.00
             315.00,119.00 277.14,120.00 277.14,120.00
             277.14,120.00 277.14,81.00 277.14,81.00
             277.14,81.00 307.00,82.00 307.00,82.00
             307.00,82.00 306.55,60.73 306.55,60.73
             299.45,62.18 298.36,61.47 291.00,61.45
             288.06,61.45 280.00,61.55 277.00,61.18
             276.45,56.91 275.83,27.00 277.18,24.73
             282.64,24.36 304.00,22.82 313.45,24.18
             314.56,21.44 313.42,6.22 313.93,4.33
             310.24,5.69 255.36,5.89 253.76,5.62 Z
           M 11.00,10.00
           C 12.85,17.61 11.57,22.63 11.66,30.00
             11.66,30.00 10.00,86.00 10.00,86.00
             9.81,107.51 11.07,122.37 7.00,144.00
             7.00,144.00 26.00,144.00 26.00,144.00
             26.00,144.00 59.00,145.31 59.00,145.31
             59.00,145.31 65.36,145.31 65.36,145.31
             65.36,145.31 66.08,139.00 66.08,139.00
             66.08,139.00 66.08,126.03 66.08,126.03
             66.08,126.03 48.00,126.03 48.00,126.03
             48.00,126.03 30.00,125.00 30.00,125.00
             30.00,125.00 31.00,94.00 31.00,94.00
             31.00,94.00 33.90,30.99 33.90,30.99
             33.42,22.05 33.16,19.07 35.00,10.00
             35.00,10.00 11.00,10.00 11.00,10.00 Z
           M 328.50,148.69
           C 332.06,148.94 340.90,149.00 347.00,149.00
             361.48,149.00 381.45,151.57 390.39,137.00
             394.26,130.70 394.99,122.25 395.00,115.00
             395.00,115.00 396.26,67.00 396.26,67.00
             396.26,67.00 396.99,52.00 396.99,52.00
             397.32,37.34 393.62,22.90 378.00,18.21
             373.77,16.94 371.30,17.01 367.00,17.00
             367.00,17.00 348.00,16.00 348.00,16.00
             344.18,15.96 335.50,15.50 330.00,16.50
             331.53,20.11 331.02,33.17 331.00,38.00
             331.00,38.00 329.00,127.00 329.00,127.00
             329.00,133.80 329.06,141.44 328.50,148.69 Z
           M 179.53,113.78
           C 180.50,115.81 180.09,118.11 180.18,120.36
             179.27,138.73 191.67,153.80 208.00,154.00
             217.08,154.11 224.91,154.54 233.00,149.44
             247.09,140.55 248.05,115.71 241.02,102.00
             232.59,85.55 217.71,78.64 207.33,66.00
             201.17,58.50 196.37,41.30 209.00,37.23
             214.54,35.45 219.84,38.92 222.00,44.00
             223.18,46.79 223.00,51.18 222.09,54.91
             224.64,55.45 240.45,55.00 245.27,55.09
             243.55,46.36 240.99,34.57 238.56,30.00
             234.87,23.08 226.39,19.62 219.00,18.44
             210.24,17.04 196.77,19.30 190.01,25.36
             179.85,34.47 178.22,53.72 182.55,66.00
             187.97,81.40 200.30,90.07 211.99,100.42
             218.61,106.29 222.63,113.08 223.18,122.00
             223.89,133.70 211.56,139.26 204.22,131.78
             199.20,126.66 200.82,116.82 201.09,113.73
             194.91,113.27 181.13,113.96 179.53,113.78 Z
           M 407.00,22.00
           C 410.28,30.73 408.99,41.69 409.00,51.00
             409.00,51.00 413.18,112.81 412.67,121.00
             412.67,121.00 411.63,150.19 411.25,155.13
             414.25,155.19 441.00,154.98 441.00,154.98
             441.00,154.98 464.75,154.38 470.44,155.00
             470.94,148.44 470.25,138.19 470.31,135.31
             467.13,135.81 433.00,136.00 433.00,136.00
             433.00,136.00 432.00,97.00 432.00,97.00
             437.69,96.25 457.56,95.69 461.63,96.56
             462.06,91.81 462.31,81.31 461.44,76.50
             457.44,77.25 434.56,77.44 431.75,77.06
             431.38,74.81 431.00,40.00 431.00,40.00
             431.00,40.00 466.98,40.00 466.98,40.00
             467.74,37.04 468.50,23.50 467.13,20.06
             462.81,20.56 407.00,22.00 407.00,22.00 Z
           M 93.00,21.06
           C 94.40,29.21 91.27,39.82 89.64,49.27
             89.64,49.27 72.14,151.02 73.82,154.36
             76.96,153.98 88.18,154.73 93.64,154.36
             94.18,145.82 96.12,136.28 96.36,131.09
             96.36,131.09 119.27,130.36 123.27,131.27
             124.36,134.00 125.82,149.45 125.27,154.00
             130.55,154.55 149.82,154.55 149.82,154.55
             149.82,154.55 127.60,32.00 127.60,32.00
             127.60,32.00 126.91,21.09 126.91,21.09
             126.91,21.09 93.00,21.06 93.00,21.06 Z
           M 350.04,130.00
           C 350.04,130.00 352.00,34.00 352.00,34.00
             358.73,33.11 370.79,31.89 374.69,39.10
             376.08,41.68 375.99,45.14 376.00,48.00
             376.00,48.00 376.00,114.50 375.29,118.00
             374.10,127.64 369.27,130.89 360.00,131.00
             355.95,131.04 353.96,131.13 350.04,130.00 Z
           M 110.00,47.00
           C 110.00,47.00 119.81,99.86 119.82,112.18
             119.82,112.18 99.82,112.55 99.82,112.55
             99.82,112.55 108.00,47.00 108.00,47.00
             108.00,47.00 110.00,47.00 110.00,47.00 Z" />
</svg>
